HIERARCHY
ROOT Hips
{
  OFFSET 134.936 88.2952 600.33
  CHANNELS 6 Xposition Yposition Zposition Zrotation Xrotation Yrotation
  JOINT RightUpLeg
  {
    OFFSET -8.9458 -8.66707 0.101652
    CHANNELS 3 Zrotation Xrotation Yrotation
    JOINT RightLeg
    {
      OFFSET 0 -44.4227 1.3727
      CHANNELS 3 Zrotation Xrotation Yrotation
      JOINT RightFoot
      {
        OFFSET 0.253549 -42.0924 -1.46059
        CHANNELS 3 Zrotation Xrotation Yrotation
        JOINT RightToes
        {
          OFFSET 0.04 -4.41509 8.4991
          CHANNELS 3 Zrotation Xrotation Yrotation
          End Site
          {
            OFFSET -0.08 -0.137448 9.77979
          }
        }
      }
    }
  }
  JOINT Spine
  {
    OFFSET 0 11.8905 0
    CHANNELS 3 Zrotation Xrotation Yrotation
    JOINT Spine1
    {
      OFFSET 0 25.6574 0.127663
      CHANNELS 3 Zrotation Xrotation Yrotation
      JOINT HEad
      {
        OFFSET 0 8.73416 0.011341
        CHANNELS 3 Zrotation Xrotation Yrotation
        End Site
        {
          OFFSET -0.29 12.7742 2.51395
        }
      }
      JOINT LeftShoulder1
      {
        OFFSET 8.99 -0.362252 -0.22
        CHANNELS 3 Zrotation Xrotation Yrotation
        JOINT LeftArm
        {
          OFFSET 10.2827 -0.00338 0.322123
          CHANNELS 3 Zrotation Xrotation Yrotation
          JOINT LeftForeArm
          {
            OFFSET 32.7669 0.099144 -1.42434
            CHANNELS 3 Zrotation Xrotation Yrotation
            JOINT LeftHand
            {
              OFFSET 27.5643 0.085362 1.02216
              CHANNELS 3 Zrotation Xrotation Yrotation
              End Site
              {
                OFFSET 16.7443 -0.6 1.50291
              }
            }
          }
        }
      }
      JOINT RightShoulder
      {
        OFFSET -8.99 -0.362252 -0.22
        CHANNELS 3 Zrotation Xrotation Yrotation
        JOINT RightArm
        {
          OFFSET -10.2827 -0.00338 0.322123
          CHANNELS 3 Zrotation Xrotation Yrotation
          JOINT RightForeArm
          {
            OFFSET -32.8971 0.099144 -1.42434
            CHANNELS 3 Zrotation Xrotation Yrotation
            JOINT RightHand
            {
              OFFSET -27.4921 0.085362 1.02216
              CHANNELS 3 Zrotation Xrotation Yrotation
              End Site
              {
                OFFSET -16.6312 -0.6 1.50291
              }
            }
          }
        }
      }
    }
  }
  JOINT LeftUpLeg
  {
    OFFSET 8.9458 -8.66707 0.101652
    CHANNELS 3 Zrotation Xrotation Yrotation
    JOINT LeftLeg
    {
      OFFSET 0 -44.4227 1.3727
      CHANNELS 3 Zrotation Xrotation Yrotation
      JOINT LeftFoot
      {
        OFFSET -0.253549 -42.0924 -1.46059
        CHANNELS 3 Zrotation Xrotation Yrotation
        JOINT LeftToes
        {
          OFFSET -0.04 -4.41509 8.4991
          CHANNELS 3 Zrotation Xrotation Yrotation
          End Site
          {
            OFFSET 0.08 -0.047448 9.77979
          }
        }
      }
    }
  }
}
MOTION
Frames:	19
Frame Time:	0.0166667
124.987 95.8528 627.13 3.75597 -3.66482 73.6939 -35.8533 -15.7084 -16.8823 9.76291 52.9881 9.2932 19.003 0.413983 -0.264518 0.0462048 0.000533403 0.662642 -10.5898 10.7851 -10.8424 -0.0038606 0.0120276 0.0228007 -10.5752 13.061 49.6325 -1.59028e-015 0 -3.18055e-015 29.0339 -49.2293 2.00316 -16.9421 15.7657 -27.3205 -1.39019 5.38226 -3.35704 17.4014 9.51061 14.7688 68.3967 -29.9225 81.4077 52.0098 55.1909 69.8436 -8.00295 18.1969 1.88863 16.128 -14.0075 -26.641 -8.65709 27.7667 26.2522 12.628 -3.83003 0.779568 -1.18446e-009 1.5602e-007 -4.87131e-009 
125.486 95.6269 625.555 3.77226 -3.5032 72.8253 -34.8133 -15.2235 -16.9064 6.42747 50.6006 11.8967 19.8178 0.242372 -0.115282 0.0462048 0.000533403 0.662642 -11.1146 10.7045 -10.0781 -0.00465424 0.0123076 0.0222007 -10.4295 13.0965 48.8393 -1.59028e-015 7.95139e-016 -3.18055e-015 38.3008 -57.4065 16.6129 -20.9965 26.617 -30.4977 3.6842 -0.53025 -5.14087 17.3607 9.84813 15.509 68.84 -31.1253 80.7606 52.3065 55.3775 70.2213 -7.20844 18.4211 2.07042 17.0983 -15.2418 -21.313 -10.6421 29.4753 22.4439 15.4892 -3.31977 0.939387 -1.18446e-009 1.5602e-007 -4.87131e-009 
125.986 95.504 624.069 3.70746 -3.31629 72.1149 -32.9004 -14.2781 -15.8114 3.13158 47.1731 12.9902 20.8337 0.00493953 0.0727385 0.0462048 0.000533403 0.662642 -11.5872 11.1398 -7.96789 -0.0055215 0.0484476 0.115554 -9.77896 12.828 46.3691 -1.59028e-015 2.38542e-015 -3.18055e-015 54.6411 -64.9898 37.8942 -25.7932 38.4757 -31.9234 1.61401 9.15791 -2.57261 17.5108 9.13099 14.93 69.3664 -32.0729 80.2268 52.6831 55.5213 70.5522 -7.22926 17.9142 2.59241 18.1293 -16.6117 -15.1942 -12.0708 31.8688 18.0519 18.3194 -2.74926 1.09052 -1.18447e-009 1.5602e-007 -4.87131e-009 
126.496 95.5223 622.673 3.57724 -3.14547 71.5825 -30.4144 -12.9922 -13.7539 -0.0598443 43.2012 12.5776 21.9995 -0.312238 0.296613 0.0462048 0.000533403 0.662642 -12.0336 11.9709 -4.74547 -0.00623004 0.0393286 0.106393 -8.78258 12.3613 42.7283 1.59028e-015 -7.95139e-016 3.18055e-015 80.4444 -69.1722 68.8599 -32.2962 50.2677 -31.4389 5.32193 5.04578 -4.16767 17.7969 7.70671 13.3005 69.9395 -32.7221 79.8301 53.1322 55.7098 70.8724 -6.60836 18.1835 2.67221 19.1592 -17.9888 -8.40494 -12.5919 34.8052 13.0001 21.0602 -2.18298 1.2204 -1.18447e-009 1.5602e-007 -4.87131e-009 
127.02 95.6897 621.36 3.39922 -3.01746 71.2387 -27.6049 -11.4736 -10.848 -3.15305 39.1568 10.7461 23.223 -0.722766 0.545177 0.0462048 0.000533403 0.662642 -12.4937 13.0799 -0.612479 -0.0068736 0.02844 0.0932326 -7.50963 11.7147 38.0766 -1.59028e-015 -3.18055e-015 3.18055e-015 106.706 -68.2762 101.111 -49.5123 60.7596 -25.0609 6.18026 14.4635 -0.607481 18.1504 5.68595 10.6894 70.5614 -33.116 79.5776 53.6697 55.9832 71.2272 -6.56953 18.0504 2.89089 20.0402 -19.1419 -2.19125 -12.5263 37.6522 8.42426 23.6043 -1.67787 1.31401 -1.18446e-009 1.5602e-007 -4.87131e-009 
127.554 95.9798 620.126 3.19188 -2.9412 71.0867 -24.6799 -9.83479 -7.16355 -6.13386 35.4768 7.62277 24.3846 -1.23132 0.798064 0.0462048 0.000533403 0.662642 -12.8918 13.9607 2.98796 -0.007416 -0.0108583 -0.0159909 -6.41376 11.2065 34.0458 1.59028e-015 3.57812e-015 -6.36111e-015 117.575 -63.6578 119.258 -68.5823 67.9301 -15.731 3.19517 -2.90096 -7.60638 18.3024 4.05488 8.48999 71.2328 -33.3913 79.4502 54.2998 56.338 71.5822 -6.21995 18.3531 2.78211 20.7352 -20.0851 3.3971 -11.8475 40.1685 4.20466 25.8654 -1.25197 1.36916 -1.18447e-009 1.5602e-007 -4.87131e-009 
128.081 96.3123 618.944 2.98204 -2.9302 70.9983 -22.032 -8.11268 -3.71777 -9.654 31.9437 4.7271 25.6226 -1.84766 1.05033 0.0462048 0.000533403 0.662642 -13.294 14.7396 6.43893 -0.00789321 -0.00646898 -0.00943 -5.31466 10.6948 30.0736 -1.59028e-015 -4.37326e-015 -0 123.702 -59.2612 131.802 -94.2003 71.0698 1.75636 0.340894 -10.227 -11.5853 18.3632 2.48592 6.13337 72.0091 -33.5055 79.4622 55.0183 56.6998 71.9247 -5.98655 18.5788 2.65156 21.3396 -20.8552 8.77321 -10.9393 42.4961 0.122216 28.1138 -0.868887 1.40977 -1.18447e-009 1.5602e-007 -4.87132e-009 
128.582 96.6141 617.82 2.77958 -2.96257 70.9737 -19.5392 -6.31196 -0.495482 -13.4857 28.6428 1.90804 26.7157 -2.52666 1.26276 0.0462048 0.000533403 0.662642 -13.7063 15.4166 9.75144 -0.00830591 -0.00458886 -0.00831204 -4.23966 10.2186 26.2743 -0 -1.59028e-015 -0 127.025 -55.4188 140.92 -118.833 70.2227 19.3093 -0.310536 -11.3259 -12.5108 18.3171 1.06079 3.85361 72.881 -33.5841 79.5946 55.8276 57.018 72.1992 -5.83589 18.7624 2.53224 21.8583 -21.4585 13.9198 -9.63606 44.5273 -3.95879 30.1762 -0.543053 1.42328 -1.18446e-009 1.5602e-007 -4.87131e-009 
129.032 96.8461 616.79 2.59186 -3.0162 71.0146 -17.1855 -4.43029 2.49406 -16.8883 25.8563 -0.927415 26.9691 -3.13746 1.36772 0.0462048 0.000533403 0.662642 -14.1222 15.9908 12.911 -0.00870786 -0.00385561 -0.00957239 -3.19607 9.78253 22.6499 -0 -3.18055e-015 -0 128.844 -52.3229 147.931 -135.844 67.0234 30.0258 1.34555 -4.04554 -9.73478 18.1565 -0.215942 1.69073 73.8579 -33.6617 79.8642 56.7379 57.2462 72.3706 -5.75366 18.9227 2.42117 22.2899 -21.8932 18.8004 -7.29341 45.8836 -8.19809 31.4314 -0.328702 1.38448 -1.18447e-009 1.5602e-007 -4.87131e-009 
129.419 96.502 615.863 2.49424 -3.08369 71.1186 -15.0497 -2.43194 5.30704 -19.752 23.0653 -3.91767 26.3918 -3.69743 1.35073 0.0462048 0.000533403 0.662642 -14.3695 16.4691 15.8047 -0.00909897 -0.00378962 -0.0117026 -2.00182 9.31605 18.8115 -1.59028e-015 5.96354e-016 -1.59028e-015 131.618 -50.8333 155.201 -146.92 62.472 35.7159 1.64631 -0.0504123 -13.2546 18.1566 -1.1638 -1.01551 75.9933 -32.5817 80.4215 57.5699 56.9998 72.2348 -9.78906 17.4895 6.69866 22.579 -22.0818 23.0048 -5.71102 46.6225 -10.8629 32.8023 -0.152316 1.363 -1.18446e-009 1.5602e-007 -4.87131e-009 
129.742 96.2462 615.009 2.4917 -3.12617 71.291 -12.5767 -0.552958 7.90061 -21.7756 20.7786 -6.72555 20.1834 -4.27766 0.97746 0.0462048 0.000533403 0.662642 -14.4656 16.8738 18.3981 -0.00947923 -0.00391129 -0.0131943 -0.680768 8.75931 14.8067 1.59028e-015 4.96962e-015 7.95139e-016 135.597 -50.6045 162.908 -153.682 57.3681 37.8504 3.66666 4.3568 -14.0355 18.2787 -1.83337 -4.08461 79.0446 -30.5154 80.9833 58.2633 56.4164 71.8797 -14.858 14.7507 12.6368 22.7219 -22.0052 26.5515 -4.7707 46.7883 -12.1123 34.1602 0.0269932 1.33562 -1.18447e-009 1.5602e-007 -4.87131e-009 
130 95.9946 614.227 2.58051 -3.14164 71.5389 -10.3919 1.25376 10.3508 -22.5354 18.7214 -9.67376 15.1523 -4.84531 0.513028 0.0462048 0.000533403 0.662642 -14.3992 17.2344 20.6646 -0.00984861 -0.00374101 -0.0135923 0.420221 8.25748 11.0424 -3.18055e-015 3.37934e-015 -0 141.042 -51.2469 171.331 -167.398 53.997 46.9366 7.01154 9.12159 -13.3254 18.4825 -2.27884 -7.3348 82.76 -27.6508 81.245 58.7108 55.5672 71.4743 -14.7391 14.3379 14.6977 22.7957 -21.7396 29.4737 -4.42347 46.5836 -12.0325 35.4498 0.158866 1.3139 -1.18447e-009 1.5602e-007 -4.87131e-009 
130.195 95.7722 613.546 2.92324 -3.08256 72.0148 -9.05107 2.03121 12.5452 -19.0762 18.2786 -12.774 11.7529 -5.95015 0.25862 0.0462048 0.000533403 0.662642 -13.8001 17.5459 21.8472 -0.0102084 -0.00279919 -0.0387903 0.93083 8.15707 8.08621 3.18055e-015 4.34841e-015 -3.97569e-016 151.945 -54.4771 -177.038 -158.04 53.0499 38.7085 10.0199 12.3961 -11.2208 18.8904 -2.1204 -10.1085 88.4139 -23.2549 80.266 57.8793 54.0616 71.0458 -3.7882 19.0864 9.18101 22.5846 -21.0411 30.3794 -6.18345 45.1681 -7.5383 36.7989 0.229237 1.32117 -1.18447e-009 1.5602e-007 -4.87131e-009 
130.335 95.5551 612.946 3.48705 -2.95285 72.6952 -7.83216 1.92534 14.5514 -11.4667 18.6638 -16.3835 -8.0942 -5.6191 -1.29079 0.0462048 0.000533403 0.662642 -12.7608 17.8117 22.0583 -0.0105552 -0.000606202 -0.0353082 0.980532 8.4442 5.83094 1.59028e-015 3.41661e-015 7.95139e-016 167.78 -58.0451 -161.738 -144.856 54.6474 28.6087 11.4246 14.6453 -11.5609 18.7727 -1.38545 -12.3226 95.5701 -18.3007 77.7958 55.7441 52.3027 71.0848 4.24674 20.6788 7.97047 22.2319 -19.9979 29.5382 -9.33979 42.8548 0.326102 38.1173 0.238885 1.38833 -1.18448e-009 1.5602e-007 -4.87132e-009 
130.362 95.5348 612.363 4.23088 -2.76053 73.5374 -8.06527 0.600763 16.6876 -2.84684 19.3953 -20.5032 -10.1438 -5.89178 -1.18839 0.0462048 0.000533403 0.662642 -11.391 18.0024 21.4456 -0.0108906 0.00451312 -0.0289057 0.652577 9.08239 4.24746 1.59028e-015 2.68359e-015 -7.95139e-016 -172.133 -60.2293 -142.93 -131.338 58.6749 18.3565 13.2311 16.1529 -10.6087 18.2971 -0.143778 -13.8249 103.488 -13.3773 73.8657 52.1848 50.4459 71.7812 18.3473 24.0631 1.83065 21.6399 -18.4911 27.1356 -12.9561 39.1663 10.399 39.353 0.469412 1.39535 -1.18445e-009 1.5602e-007 -4.87132e-009 
130.294 95.5012 611.876 5.09072 -2.57814 74.503 -8.77103 -0.104737 18.4609 4.552 19.1938 -24.9418 -18.8466 -5.11127 -1.70821 0.0462048 0.000533403 0.662642 -9.75251 18.0934 20.1583 -0.0112158 0.0129423 -0.0211082 0.0446598 9.98864 3.28908 -0 -4.24902e-015 -0 -159.234 -60.7812 -129.968 -120.987 60.7528 9.02592 14.1405 17.2195 -10.9632 17.7541 1.44919 -14.5592 108.51 -10.7194 70.9011 49.6427 50.2818 72.7149 23.866 24.2216 0.61696 21.2182 -16.8062 23.4668 -16.5268 34.7168 22.1074 40.4894 0.564739 1.44513 -1.18447e-009 1.5602e-007 -4.87132e-009 
130.125 95.6176 611.563 6.00796 -2.44389 75.5638 -10.9859 -0.866569 20.0913 12.8129 18.7091 -29.7323 -22.5583 -4.55979 -1.66139 0.0462048 0.000533403 0.662642 -7.94184 18.0495 18.3454 -0.0115335 0.0203015 -0.0134633 -0.751476 11.0838 2.90349 -7.95139e-016 -2.80783e-015 -5.96354e-016 -151.744 -61.3523 -121.588 -113.466 61.649 1.39297 15.2131 17.9819 -10.5721 17.111 3.30566 -14.6351 111.565 -9.34006 68.9307 47.8263 50.8704 73.4535 28.9445 24.6352 -2.20369 20.9046 -14.8152 18.6373 -19.1266 29.0918 34.4928 41.3593 0.745743 1.42219 -1.18446e-009 1.5602e-007 -4.87131e-009 
129.91 95.687 611.429 6.93586 -2.37459 76.6904 -13.9042 -1.1784 21.5193 21.4715 16.6772 -34.5093 -28.6294 -3.5412 -1.82473 0.0462048 0.000533403 0.662642 -6.06321 17.8375 16.1656 -0.0118434 0.022401 -0.00672709 -1.65704 12.302 3.02554 -7.95139e-016 1.83876e-015 9.93923e-017 -147.752 -62.3903 -116.267 -108.243 61.864 -4.49111 15.6695 18.5625 -11.0897 16.4251 5.32956 -14.2008 113.246 -8.66594 67.7723 46.4744 51.6984 73.9453 29.7521 24.1311 -1.85113 20.9809 -12.894 12.8914 -21.7289 23.9529 46.0461 42.0657 0.821666 1.40882 -1.18447e-009 1.5602e-007 -4.87131e-009 
129.628 96.1401 611.378 7.85073 -2.34288 77.8573 -15.8751 -0.878995 22.6479 25.6889 14.9135 -37.3103 -31.7577 -1.6003 -1.68884 0.0462048 0.000533403 0.662642 -4.47876 17.8028 13.9962 -0.0121428 0.0222243 -0.00289742 -2.43265 13.1981 3.40539 -1.63797e-033 1.88845e-015 4.96962e-017 -146.068 -63.4735 -113.267 -104.667 61.6687 -8.96301 16.1975 19.0198 -11.2101 15.8933 7.01692 -13.4558 113.966 -8.3553 67.1735 45.3991 52.5594 74.2043 31.0021 24.0822 -2.60029 23.5121 -11.1299 6.46467 -26.1059 20.8646 56.5184 23.6956 -0.530219 0.966313 -1.18446e-009 1.5602e-007 -4.87132e-009 
